<svg width="24" height="24" viewBox="0 0 24 24" fill="none" xmlns="http://www.w3.org/2000/svg">
<path d="M3.02511 7.10448C2.47388 8.17901 2.47388 9.45265 2.47388 11.9999C2.47388 14.5472 2.47388 15.8209 3.02511 16.8954C3.1006 17.0425 3.18335 17.1859 3.27305 17.3248C3.928 18.3395 5.03101 18.9763 7.23702 20.2499L7.23703 20.2499C9.44303 21.5236 10.546 22.1604 11.7522 22.2203C11.9174 22.2285 12.0829 22.2285 12.2481 22.2203C13.4543 22.1604 14.5573 21.5236 16.7633 20.2499L16.7633 20.2499C18.9693 18.9763 20.0723 18.3395 20.7273 17.3248C20.817 17.1859 20.8997 17.0425 20.9752 16.8954C21.5264 15.8209 21.5264 14.5472 21.5264 11.9999C21.5264 9.45265 21.5264 8.17901 20.9752 7.10448C20.8997 6.95732 20.817 6.814 20.7273 6.67504C20.0723 5.6604 18.9693 5.02358 16.7633 3.74993C14.5573 2.47629 13.4543 1.83947 12.2481 1.77959C12.0829 1.77139 11.9174 1.77139 11.7522 1.77959C10.546 1.83947 9.44303 2.47629 7.23702 3.74993C5.03101 5.02358 3.928 5.6604 3.27305 6.67504C3.18335 6.814 3.1006 6.95732 3.02511 7.10448Z" stroke="currentColor" stroke-width="1.5"/>
<path d="M13 16C13 16.5523 12.5523 17 12 17C11.4477 17 11 16.5523 11 16C11 15.4477 11.4477 15 12 15C12.5523 15 13 15.4477 13 16Z" fill="currentColor"/>
<path d="M12 7V13" stroke="currentColor" stroke-width="1.5" stroke-linecap="round"/>
</svg>
